# File created by Blade
# Date/Time:  Wed Apr 08 17:19:54 2015
# Frame Rate: 120.000 fps
#------------------------------------------------------
:FULLY-SPECIFIED
:DEGREES
1646
root 7.007413 35.953836 -5.353450 186.473496 -82.958653 -194.395292
Spine 9.964118 1.845167 -3.918009
Head 14.991176 9.610702 7.973999
LeftShoulder -6.019211 8.434716 28.675298
LeftArm 13.987944 -36.665729 -34.565486
LeftForeArm 26.699428 0.000000 3.209489
LeftHand -11.199982 -0.000000 -17.736346
LeftHandThumb1 -26.253704 0.000000 33.147579
RightShoulder -22.822375 -37.616317 -12.612827
RightArm 51.456745 49.207141 50.575905
RightForeArm 3.239206 -0.000000 -1.274037
RightHand -3.334986 -0.000000 10.984928
RightHandThumb1 -24.326973 -0.000000 -32.862282
LeftUpLeg 15.455977 15.161780 6.926413
LeftLeg 4.840724 -0.000000 -0.000000
LeftFoot -12.266085 9.312995 -14.590984
LeftToeBase 7.782851 -0.000000 -0.000000
RightUpLeg 15.223508 -9.937214 -11.174832
RightLeg 4.038704 -0.000000 -0.000000
RightFoot -12.316321 1.503234 18.811926
RightToeBase 8.059848 -0.000000 -0.000000
1647
root 6.998955 35.952406 -5.342483 186.580661 -82.934272 -194.507386
Spine 9.949969 1.853934 -3.906835
Head 15.044464 9.602260 7.990946
LeftShoulder -6.005992 8.416232 28.685181
LeftArm 13.936034 -36.704143 -34.562393
LeftForeArm 26.722924 0.000000 3.164884
LeftHand -11.128110 -0.000000 -17.749769
LeftHandThumb1 -26.253704 0.000000 33.147579
RightShoulder -22.761056 -37.611005 -12.634340
RightArm 51.375440 49.223851 50.531122
RightForeArm 3.227639 -0.000000 -1.240745
RightHand -3.764981 0.000000 10.988448
RightHandThumb1 -24.326973 -0.000000 -32.862282
LeftUpLeg 15.473716 15.171555 6.888784
LeftLeg 4.846704 -0.000000 -0.000000
LeftFoot -12.289411 9.340815 -14.566759
LeftToeBase 7.755612 -0.000000 -0.000000
RightUpLeg 15.234880 -9.920415 -11.217562
RightLeg 4.037880 -0.000000 -0.000000
RightFoot -12.324667 1.531157 18.822318
RightToeBase 8.076415 -0.000000 -0.000000
1648
root 6.990546 35.950807 -5.332185 186.660435 -82.909731 -194.595592
Spine 9.946729 1.867187 -3.899629
Head 15.081890 9.588409 8.020170
LeftShoulder -6.001836 8.412397 28.699677
LeftArm 13.896405 -36.710638 -34.558747
LeftForeArm 26.720737 -0.000000 3.136827
LeftHand -11.099564 -0.000000 -17.777800
LeftHandThumb1 -26.253704 0.000000 33.147579
RightShoulder -22.752031 -37.611823 -12.627726
RightArm 51.345156 49.190149 50.478384
RightForeArm 3.261829 0.000000 -1.249423
RightHand -3.782171 0.000000 10.938917
RightHandThumb1 -24.326973 -0.000000 -32.862282
LeftUpLeg 15.498536 15.196619 6.862483
LeftLeg 4.849103 -0.000000 -0.000000
LeftFoot -12.305452 9.344780 -14.567689
LeftToeBase 7.746228 -0.000000 -0.000000
RightUpLeg 15.249093 -9.901674 -11.257777
RightLeg 4.037123 -0.000000 -0.000000
RightFoot -12.327098 1.554742 18.858260
RightToeBase 8.078563 -0.000000 -0.000000
1649
root 6.981896 35.949093 -5.322362 186.684325 -82.887752 -194.628054
Spine 9.944807 1.888159 -3.882228
Head 15.117493 9.569816 8.051531
LeftShoulder -5.984549 8.401605 28.724105
LeftArm 13.847490 -36.748450 -34.574609
LeftForeArm 26.804759 -0.000000 3.134972
LeftHand -11.104883 -0.000000 -17.811404
LeftHandThumb1 -26.253704 0.000000 33.147579
RightShoulder -22.779526 -37.622749 -12.606990
RightArm 51.346430 49.134567 50.435719
RightForeArm 3.308563 -0.000000 -1.277443
RightHand -3.653863 -0.000000 10.932506
RightHandThumb1 -24.326973 -0.000000 -32.862282
LeftUpLeg 15.526583 15.195879 6.836597
LeftLeg 4.845850 -0.000000 -0.000000
LeftFoot -12.340333 9.367853 -14.559361
LeftToeBase 7.766960 -0.000000 -0.000000
RightUpLeg 15.264388 -9.884735 -11.287674
RightLeg 4.036997 -0.000000 -0.000000
RightFoot -12.333233 1.576637 18.882417
RightToeBase 8.087318 -0.000000 -0.000000
1650
root 6.973736 35.947473 -5.313084 186.685710 -82.863004 -194.644728
Spine 9.951215 1.914619 -3.866606
Head 15.154268 9.573946 8.095129
LeftShoulder -5.971408 8.400367 28.749479
LeftArm 13.810317 -36.771493 -34.589374
LeftForeArm 26.872729 -0.000000 3.142482
LeftHand -11.146865 -0.000000 -17.858279
LeftHandThumb1 -26.253704 0.000000 33.147579
RightShoulder -22.814905 -37.637384 -12.573313
RightArm 51.430290 49.128991 50.480476
RightForeArm 3.291311 -0.000000 -1.319114
RightHand -3.429088 -0.000000 10.974006
RightHandThumb1 -24.326973 -0.000000 -32.862282
LeftUpLeg 15.559816 15.201402 6.816544
LeftLeg 4.844020 -0.000000 -0.000000
LeftFoot -12.362377 9.391311 -14.556514
LeftToeBase 7.764331 -0.000000 -0.000000
RightUpLeg 15.280059 -9.892065 -11.325019
RightLeg 4.047376 -0.000000 -0.000000
RightFoot -12.333145 1.610009 18.887740
RightToeBase 8.100359 -0.000000 -0.000000
1651
root 6.965571 35.945876 -5.304863 186.675711 -82.837803 -194.652771
Spine 9.958641 1.929240 -3.849246
Head 15.188534 9.575552 8.122181
LeftShoulder -5.968407 8.421803 28.751894
LeftArm 13.770798 -36.763174 -34.567089
LeftForeArm 26.935778 -0.000000 3.148716
LeftHand -11.383331 -0.000000 -17.692662
LeftHandThumb1 -26.253704 0.000000 33.147579
RightShoulder -22.820652 -37.661817 -12.562639
RightArm 51.535323 49.156969 50.580173
RightForeArm 3.237160 -0.000000 -1.340768
RightHand -3.311477 -0.000000 10.965723
RightHandThumb1 -24.326973 -0.000000 -32.862282
LeftUpLeg 15.600527 15.189304 6.797223
LeftLeg 4.836059 -0.000000 -0.000000
LeftFoot -12.393535 9.418175 -14.558605
LeftToeBase 7.782462 -0.000000 -0.000000
RightUpLeg 15.295855 -9.892807 -11.355620
RightLeg 4.064722 -0.000000 -0.000000
RightFoot -12.346347 1.636348 18.878190
RightToeBase 8.151466 -0.000000 -0.000000
1652
root 6.959057 35.945011 -5.296964 186.714971 -82.820910 -194.699897
Spine 9.962002 1.932490 -3.832662
Head 15.235566 9.610997 8.121991
LeftShoulder -5.980464 8.417941 28.745610
LeftArm 13.736095 -36.740572 -34.542384
LeftForeArm 26.994562 -0.000000 3.143373
LeftHand -11.386713 -0.000000 -17.718971
LeftHandThumb1 -26.253704 0.000000 33.147579
RightShoulder -22.797286 -37.625894 -12.575217
RightArm 51.507169 49.149333 50.574202
RightForeArm 3.233378 0.000000 -1.310999
RightHand -3.631257 0.000000 10.952616
RightHandThumb1 -24.326973 -0.000000 -32.862282
LeftUpLeg 15.617726 15.189539 6.775657
LeftLeg 4.843348 -0.000000 -0.000000
LeftFoot -12.414555 9.427637 -14.564460
LeftToeBase 7.781548 -0.000000 -0.000000
RightUpLeg 15.295169 -9.912142 -11.388413
RightLeg 4.091034 -0.000000 -0.000000
RightFoot -12.346892 1.656178 18.859901
RightToeBase 8.101524 -0.000000 -0.000000
